{"title":"The.Rambler.2013.BDRiP.AC3-5.1.XviD-AXED [PublicHash]","uid":8530297,"size":1488296964,"categoryP":"video","categoryS":"movies","magnet":"?xt=urn:btih:7eee29451eeb8e9b9552647953ef290b1e5354ea&amp;dn=The.Rambler.2013.BDRiP.AC3-5.1.XviD-AXED+%5BPublicHash%5D&amp;tr=udp%3A%2F%2Ftracker.openbittorrent.com%3A80&amp;tr=udp%3A%2F%2Fopen.demonii.com%3A1337&amp;tr=udp%3A%2F%2Ftracker.coppersurfer.tk%3A6969&amp;tr=udp%3A%2F%2Fexodus.desync.com%3A6969","seeders":0,"leechers":1,"uploader":"R0thschild","files":4,"time":1370130088,"description":"              ***********************************************\n\n                PublicHash - Largest Bittorrent Community\n      \n                         &lt;a href=&quot; http://publichash.com/&quot; rel=&quot;nofollow&quot; target=&quot;_NEW&quot;&gt; http://publichash.com/&lt;/a&gt;\n    \n              ***********************************************\nIMDB: &lt;a href=&quot;\nhttp://www.imdb.com/title/tt2381355&quot; rel=&quot;nofollow&quot; target=&quot;_NEW&quot;&gt;\nhttp://www.imdb.com/title/tt2381355&lt;/a&gt;\n\nPLOT INFO:\nDermot Mulroney is The Rambler\n\nMedia Info:\nGeneral\nComplete name: The.Rambler.2013.BDRiP.AC3-5.1.XviD-AXED.avi\nFormat: AVI\nFormat/Info: Audio Video Interleave\nFile size: 1.37 GiB\nDuration: 1h 38mn\nOverall bit rate: 1 987 Kbps\n\nVideo\nID: 0\nFormat: MPEG-4 Visual\nFormat profile: Advanced Simple@L5\nFormat settings, BVOP: 2\nFormat settings, QPel: No\nFormat settings, GMC: No warppoints\nFormat settings, Matrix: Default (H.263)\nMuxing mode: Packed bitstream\nCodec ID: XVID\nCodec ID/Hint: XviD\nDuration: 1h 38mn\nBit rate: 1 531 Kbps\nWidth: 720 pixels\nHeight: 304 pixels\nDisplay aspect ratio: 2.35:1\nFrame rate: 23.976 fps\nColor space: YUV\nChroma subsampling: 4:2:0\nBit depth: 8 bits\nScan type: Progressive\nCompression mode: Lossy\nBits/(Pixel*Frame): 0.292\nStream size: 1.06 GiB (77%)\nWriting library: XviD 64\n\nAudio\nID: 1\nFormat: AC-3\nFormat/Info: Audio Coding 3\nMode extension: CM (complete main)\nFormat settings, Endianness: Big\nCodec ID: 2000\nDuration: 1h 38mn\nBit rate mode: Constant\nBit rate: 448 Kbps\nChannel(s): 6 channels\nChannel positions: Front: L C R, Side: L R, LFE\nSampling rate: 48.0 KHz\nBit depth: 16 bits\nCompression mode: Lossy\nStream size: 316 MiB (23%)\nAlignment: Aligned on interleaves\nInterleave, duration: 64 ms (1.53 video frames)\nInterleave, preload duration: 192 ms\nTitle: rambler\n\nSOURCE:\nRetail RA Blu-Ray DISC\n\nNOTES:\nNot much to say, interesting looking new movie with Dermot Mulroney, enjoy\n\nAXED! We do this better\n\nGallery: &lt;a href=&quot;\nhttp://imgsure.com/?g=367871&quot; rel=&quot;nofollow&quot; target=&quot;_NEW&quot;&gt;\nhttp://imgsure.com/?g=367871&lt;/a&gt;","torrent":{"xt":"urn:btih:7eee29451eeb8e9b9552647953ef290b1e5354ea","amp;dn":"The.Rambler.2013.BDRiP.AC3-5.1.XviD-AXED+%5BPublicHash%5D","amp;tr":["udp%3A%2F%2Ftracker.openbittorrent.com%3A80","udp%3A%2F%2Fopen.demonii.com%3A1337","udp%3A%2F%2Ftracker.coppersurfer.tk%3A6969","udp%3A%2F%2Fexodus.desync.com%3A6969"],"infoHash":"7eee29451eeb8e9b9552647953ef290b1e5354ea","infoHashBuffer":{"type":"Buffer","data":[126,238,41,69,30,235,142,155,149,82,100,121,83,239,41,11,30,83,84,234]},"announce":[],"urlList":[]}}